<svg width="25" height="24" viewBox="0 0 25 24" fill="none" xmlns="http://www.w3.org/2000/svg">
<path fill-rule="evenodd" clip-rule="evenodd" d="M21.03 11.47C21.1704 11.6106 21.2493 11.8013 21.2493 12C21.2493 12.1988 21.1704 12.3894 21.03 12.53L15.03 18.53C14.9613 18.6037 14.8785 18.6628 14.7865 18.7038C14.6945 18.7448 14.5952 18.7668 14.4945 18.7686C14.3938 18.7704 14.2938 18.7518 14.2004 18.7141C14.107 18.6764 14.0222 18.6203 13.951 18.549C13.8797 18.4778 13.8236 18.393 13.7859 18.2996C13.7482 18.2062 13.7296 18.1062 13.7314 18.0055C13.7332 17.9048 13.7552 17.8055 13.7962 17.7135C13.8372 17.6215 13.8963 17.5387 13.97 17.47L18.69 12.75L4.5 12.75C4.30108 12.75 4.11032 12.671 3.96967 12.5303C3.82901 12.3897 3.75 12.1989 3.75 12C3.75 11.8011 3.82901 11.6103 3.96967 11.4697C4.11032 11.329 4.30108 11.25 4.5 11.25L18.69 11.25L13.97 6.53C13.8963 6.46134 13.8372 6.37854 13.7962 6.28654C13.7552 6.19454 13.7332 6.09523 13.7314 5.99452C13.7296 5.89382 13.7482 5.79379 13.7859 5.7004C13.8236 5.60701 13.8797 5.52218 13.951 5.45096C14.0222 5.37974 14.107 5.3236 14.2004 5.28588C14.2938 5.24816 14.3938 5.22963 14.4945 5.23141C14.5952 5.23319 14.6945 5.25523 14.7865 5.29622C14.8785 5.33721 14.9613 5.39631 15.03 5.47L21.03 11.47Z" fill="black"/>
</svg>
